<svg width="50" height="40" viewBox="0 0 50 40" fill="none" xmlns="http://www.w3.org/2000/svg">
<g clip-path="url(#clip0)">
<path d="M30.0917 19.9917C30.1234 16.2425 27.09 13.0292 23.1792 12.9833C22.2519 12.9691 21.3311 13.1396 20.4705 13.4851C19.6098 13.8305 18.8266 14.3439 18.1665 14.9953C17.5064 15.6467 16.9827 16.423 16.6259 17.279C16.2691 18.135 16.0864 19.0535 16.0884 19.9808C16.0875 23.92 19.245 26.9533 23.0217 26.99C27.0009 27.0283 30.12 23.7833 30.0917 19.9917ZM23.2725 27.63C23.2159 27.6175 22.5709 27.5967 22.5134 27.5933C21.9165 27.5593 21.3265 27.4492 20.7575 27.2659C19.3755 26.8381 18.1443 26.0248 17.2084 24.9217C16.2175 23.7667 15.6225 22.435 15.4459 20.92C15.4259 20.7508 15.4009 20.5817 15.3784 20.4125V19.6758C15.3909 19.6242 15.4075 19.5725 15.4142 19.52C15.4559 19.185 15.4784 18.8475 15.5384 18.5158C15.8042 17.055 16.4392 15.7742 17.4717 14.7058C18.7584 13.375 20.3409 12.6392 22.1767 12.4367C22.3459 12.4183 23.1325 12.3925 23.3009 12.3708C24.7642 12.3708 27.1834 12.4025 27.24 12.4083C27.4642 12.4325 27.69 12.4417 27.9117 12.4775C29.4942 12.73 30.9109 13.3533 32.1025 14.43C33.9292 16.08 34.7575 18.1475 34.6042 20.605C34.5562 21.4544 34.332 22.2845 33.9459 23.0425C32.6034 25.6608 30.455 27.1542 27.5467 27.5625C27.3892 27.5858 24.7359 27.63 23.2725 27.63Z" fill="#F7F7F7"/>
<path fill-rule="evenodd" clip-rule="evenodd" d="M24.7042 24.0665V15.9124C25.9108 16.299 27.4033 17.6982 27.4975 19.7824C27.595 21.9582 26.14 23.564 24.7042 24.0665V24.0665Z" fill="#F7F7F7"/>
<path fill-rule="evenodd" clip-rule="evenodd" d="M21.4833 24.069C20.1525 23.6032 18.57 22.0574 18.6933 19.7257C18.7958 17.7915 20.165 16.3532 21.4833 15.9082V24.069Z" fill="#F7F7F7"/>
</g>
<defs>
<clipPath id="clip0">
<rect width="50" height="40" fill="white"/>
</clipPath>
</defs>
</svg>
