<?xml version="1.0" encoding="UTF-8"?>
<svg width="50" height="40" viewBox="0 0 60 40" xmlns="http://www.w3.org/2000/svg">
  <g fill="none" fill-rule="evenodd">
    <path d="M60 35c0 2.75-2.25 5-5 5H5c-2.75 0-5-2.25-5-5V5c0-2.75 2.25-5 5-5h50c2.75 0 5 2.25 5 5v30z" fill="transparent"/>
    <path d="M36.11 19.99c.038-4.499-3.602-8.355-8.295-8.41a8.38 8.38 0 00-8.509 8.397c-.001 4.727 3.788 8.367 8.32 8.411 4.775.046 8.518-3.848 8.484-8.398zm-8.183 9.166c-.068-.015-.842-.04-.911-.044a8.439 8.439 0 01-2.107-.393 9.123 9.123 0 01-4.259-2.813c-1.189-1.386-1.903-2.984-2.115-4.802-.024-.203-.054-.406-.081-.609v-.884c.015-.062.035-.124.043-.187.05-.402.077-.807.149-1.205.319-1.753 1.081-3.29 2.32-4.572 1.544-1.597 3.443-2.48 5.646-2.723.203-.022 1.147-.053 1.349-.079 1.756 0 4.659.038 4.727.045.269.029.54.04.806.083 1.899.303 3.599 1.051 5.029 2.343 2.192 1.98 3.186 4.461 3.002 7.41a7.36 7.36 0 01-.79 2.925c-1.611 3.142-4.189 4.934-7.679 5.424-.189.028-3.373.081-5.129.081z" fill="#074C95" fill-rule="nonzero"/>
    <path d="M29.645 24.88v-9.785c1.448.464 3.239 2.143 3.352 4.644.117 2.611-1.629 4.538-3.352 5.141z" fill="#074C95"/>
    <path d="M25.78 24.883c-1.597-.559-3.496-2.414-3.348-5.212.123-2.321 1.766-4.047 3.348-4.581v9.793z" fill="#074C95"/>
  </g>
</svg>
