<svg xmlns="http://www.w3.org/2000/svg" xmlns:xlink="http://www.w3.org/1999/xlink" width="64" height="42">
  <defs>
    <filter id="a" width="111.7%" height="117.9%" x="-5.8%" y="-6.4%" filterUnits="objectBoundingBox">
      <feOffset dy="1" in="SourceAlpha" result="shadowOffsetOuter1"/>
      <feGaussianBlur in="shadowOffsetOuter1" result="shadowBlurOuter1" stdDeviation="1"/>
      <feColorMatrix in="shadowBlurOuter1" result="shadowMatrixOuter1" values="0 0 0 0 0.509803922 0 0 0 0 0.509803922 0 0 0 0 0.509803922 0 0 0 0.5 0"/>
      <feMerge>
        <feMergeNode in="shadowMatrixOuter1"/>
        <feMergeNode in="SourceGraphic"/>
      </feMerge>
    </filter>
    <path id="b" d="M59.728 37.619H0V.289h59.728z"/>
  </defs>
  <g fill="none" fill-rule="evenodd" filter="url(#a)" transform="translate(2 1)">
    <g transform="translate(0 .187)">
      <mask id="c" fill="#fff">
        <use xlink:href="#b"/>
      </mask>
      <path d="M59.728 35.629c0 1.1-.891 1.99-1.991 1.99H1.99A1.99 1.99 0 010 35.63V2.279C0 1.18.89.29 1.99.29h55.747c1.1 0 1.991.891 1.991 1.99v33.35z" mask="url(#c)"/>
    </g>
    <path fill="#0E0B16" d="M21.353 16.372c-1.339-1.645-3.844-2.31-5.995-1.194-1.804.936-3.128 3.419-2.603 4.863l8.598-3.669m4.44 1.286l-15.191 6.493c-1.475-2.033-2.031-5.552-.391-8.589 1.708-3.163 5.279-4.914 8.824-4.299 3.826.665 6.194 3.654 6.758 6.395m1.554-10.291h3.225v.298c0 5.219.002 10.437-.004 15.656-.001.206.063.294.249.368.8.318 1.591.654 2.386.985.056.023.11.051.191.089l-1.336 3.214c-.433-.179-.84-.346-1.246-.515-.465-.194-.93-.391-1.395-.582-1.32-.54-1.963-1.552-2.065-2.945-.006-.085-.005-.17-.005-.256V7.367z"/>
    <path fill="#E03626" d="M39.602 27.514l1.097-3.275c1.414.432 2.772.325 4.047-.416 1.267-.737 2.04-1.85 2.375-3.285l3.382.693c-.9 4.963-6.27 7.954-10.901 6.283"/>
    <path fill="#FBED21" d="M40.702 14.88l-1.091-3.265c4.143-1.61 9.806.873 10.906 6.278l-3.395.694c-.338-1.436-1.105-2.553-2.374-3.29-1.27-.736-2.618-.85-4.046-.418"/>
    <path fill="#009CD6" d="M36.726 25.86c-3.786-3.242-3.824-9.312-.005-12.6l2.297 2.593c-1.086 1.002-1.67 2.239-1.668 3.707.001 1.463.575 2.697 1.671 3.704l-2.295 2.595"/>
    <path fill="#0E0B16" d="M21.09 23.088l2.4 2.465c-2.655 2.77-7.254 3.188-10.35 1.102l1.828-2.914c2.187 1.198 4.213.974 6.122-.653"/>
  </g>
</svg>
