<svg width="60" height="40" viewBox="0 0 60 40" fill="none" xmlns="http://www.w3.org/2000/svg">
<path fill-rule="evenodd" clip-rule="evenodd" d="M26.037 30.4771L5.91699 30.4841V30.4361C5.91699 30.4091 5.94899 30.2371 5.98799 30.0521C6.02699 29.8681 6.08799 29.5741 6.12299 29.4001L6.25699 28.7431L6.39899 28.0491L6.53699 27.3671C6.57299 27.1861 6.63399 26.8901 6.67199 26.7101C6.76777 26.2519 6.86144 25.7932 6.95299 25.3341C6.98799 25.1601 7.04399 24.8911 7.07699 24.7371C7.10999 24.5831 7.15199 24.3751 7.17099 24.2741C7.18899 24.1741 7.24899 23.8781 7.30399 23.6161C7.35899 23.3541 7.41899 23.0591 7.43799 22.9591C7.45699 22.8591 7.51799 22.5631 7.57199 22.3011C7.62699 22.0401 7.68699 21.7441 7.70599 21.6441C7.72499 21.5441 7.78499 21.2481 7.84099 20.9871C7.92493 20.5942 8.00494 20.2005 8.08099 19.8061L8.25499 18.9661L8.46199 17.9551L8.61899 17.1761L8.72899 16.6401L8.86199 15.9951L9.00799 15.2891L9.14399 14.6191L9.27699 13.9741L9.42299 13.2681C9.46499 13.0601 9.53599 12.7431 9.57999 12.5621C9.62399 12.3811 9.68599 12.1621 9.71899 12.0751C9.75099 11.9881 9.83999 11.7991 9.91599 11.6561L10.055 11.3951L10.181 11.2301C10.25 11.1391 10.374 10.9961 10.456 10.9111C10.6363 10.7284 10.8327 10.5624 11.043 10.4151C11.11 10.3691 11.241 10.2881 11.335 10.2361C11.429 10.1831 11.56 10.1151 11.627 10.0831C12.0388 9.89588 12.4716 9.75857 12.916 9.67409C13.089 9.64009 13.363 9.59409 13.525 9.57209L13.819 9.53309L33.951 9.52509L54.083 9.51709V9.56509C54.083 9.59209 54.051 9.76409 54.011 9.94909L53.864 10.6501L53.731 11.2951L53.595 11.9531L53.45 12.6591L53.316 13.3171C53.28 13.4981 53.219 13.7941 53.181 13.9741L53.051 14.6071L52.915 15.2771L52.769 15.9831L52.635 16.6281L52.499 17.2981C52.458 17.4991 52.393 17.8171 52.353 18.0041C52.313 18.1911 52.255 18.4761 52.222 18.6371L52.086 19.3071L51.95 19.9771L51.819 20.6101C51.723 21.0681 51.6287 21.5264 51.536 21.9851L51.404 22.6301L51.259 23.3361L51.124 23.9931L50.987 24.6631L50.842 25.3691L50.71 26.0141L50.576 26.6721C50.535 26.8731 50.469 27.1891 50.428 27.3761L50.355 27.7141L50.268 27.9481C50.22 28.0771 50.148 28.2481 50.108 28.3281C50.0019 28.5314 49.8788 28.7255 49.74 28.9081C49.6496 29.0121 49.5555 29.1128 49.458 29.2101L49.253 29.4161L49.055 29.5561C48.9702 29.6171 48.8835 29.6755 48.795 29.7311C48.6987 29.7821 48.6017 29.8317 48.504 29.8801C48.375 29.9445 48.2436 30.0039 48.11 30.0581C47.778 30.1792 47.4365 30.2725 47.089 30.3371C46.8955 30.3749 46.7007 30.4056 46.505 30.4291L46.157 30.4701L26.037 30.4771V30.4771Z" fill="#F7F7F7"/>
<path fill-rule="evenodd" clip-rule="evenodd" d="M17.068 16.102L17.145 15.772H15.677L15.645 15.996C15.637 16.059 15.607 16.235 15.582 16.388L15.571 16.45L15.474 16.997C15.3879 17.4896 15.3062 17.9829 15.229 18.477L15.204 18.643L13.549 18.677L12.81 18.659C12.6083 18.654 12.4067 18.6483 12.205 18.642L12.217 18.573C12.237 18.461 12.273 18.265 12.299 18.139C12.325 18.011 12.374 17.758 12.408 17.577C12.442 17.394 12.481 17.167 12.495 17.071C12.507 16.98 12.534 16.828 12.554 16.733C12.575 16.635 12.615 16.428 12.641 16.274C12.665 16.135 12.691 16.006 12.698 15.981L12.779 15.772H11.299L11.242 16.087C11.2198 16.2121 11.1992 16.3374 11.18 16.463L11.081 17.082L10.812 18.763C10.771 19.017 10.705 19.41 10.664 19.637C10.622 19.865 10.563 20.187 10.531 20.354L10.397 21.06C10.355 21.282 10.294 21.592 10.261 21.752C10.228 21.915 10.191 22.102 10.179 22.17C10.167 22.236 10.13 22.428 10.096 22.596C10.072 22.716 10.031 22.925 10.031 22.968V23.132H11.446L11.74 21.348L11.878 20.533C11.912 20.333 11.967 20.021 11.999 19.842L12.046 19.59H15.034L15.029 19.617C15.014 19.695 14.968 19.933 14.929 20.148L14.781 20.952L14.647 21.67C14.615 21.837 14.549 22.189 14.502 22.45C14.476 22.596 14.414 22.938 14.414 22.977L14.416 23.132H15.833L15.877 22.876C15.892 22.792 15.915 22.639 15.93 22.538C15.944 22.438 15.977 22.226 16.004 22.066L16.125 21.36L16.271 20.495L16.406 19.692C16.44 19.498 16.499 19.171 16.538 18.963L16.956 16.686C16.994 16.459 17.046 16.198 17.068 16.102Z" fill="#81858E"/>
<path fill-rule="evenodd" clip-rule="evenodd" d="M18.458 19.901L18.591 19.207C18.625 19.026 18.691 18.684 18.739 18.444C18.7654 18.2967 18.7978 18.1506 18.836 18.006L18.954 17.813L17.561 17.83L17.502 18.253C17.4656 18.5084 17.4262 18.7634 17.384 19.018L17.248 19.859C17.2067 20.1142 17.1624 20.3689 17.115 20.623L16.982 21.329C16.8984 21.7667 16.8131 22.204 16.726 22.641C16.7077 22.7343 16.6876 22.8273 16.666 22.92L16.609 23.132H17.906L17.951 23.014C17.9667 22.959 17.9744 22.9021 17.974 22.845C17.974 22.813 18 22.61 18.046 22.325L18.194 21.421L18.328 20.617C18.36 20.424 18.419 20.102 18.458 19.901V19.901Z" fill="#81858E"/>
<path fill-rule="evenodd" clip-rule="evenodd" d="M18.125 17.177L18.494 17.19L18.749 17.104L19.005 16.863L19.143 16.537L19.155 16.045L19.039 15.853L18.798 15.688H18.396L18.097 15.81L17.912 15.994L17.774 16.298L17.741 16.791L17.882 17.067L18.125 17.177Z" fill="#81858E"/>
<path d="M22.671 19.4531L22.65 20.3361L22.588 20.6101C22.5485 20.7779 22.5011 20.9438 22.446 21.1071L22.371 21.3281L22.269 21.5211C22.2136 21.6257 22.1525 21.7272 22.086 21.8251C22.0398 21.889 21.9876 21.9483 21.93 22.0021C21.885 22.0411 21.809 22.1021 21.763 22.1361L21.689 22.1911L21.311 22.3201L20.95 22.3451L20.7 22.3011L20.464 22.1941L20.308 22.0451L20.264 21.9461C20.2328 21.8713 20.2067 21.7945 20.186 21.7161L20.16 21.6021L20.181 21.2171L20.244 20.8881C20.279 20.7071 20.341 20.3671 20.382 20.1311C20.423 19.8981 20.486 19.5541 20.521 19.3701L20.576 19.0761L20.681 18.9891C20.7605 18.9236 20.8447 18.8641 20.933 18.8111L21.038 18.7481L21.35 18.6481L21.77 18.6231L22.084 18.6861L22.316 18.7931L22.498 18.9751L22.546 19.0721C22.573 19.1241 22.614 19.2371 22.634 19.3141L22.671 19.4531V19.4531ZM23.872 18.7501L23.707 18.4211L23.368 18.0551L22.93 17.8261L22.496 17.7221L22.058 17.6931L21.58 17.7501L21.183 17.8541L21.019 17.9291C20.929 17.9711 20.792 18.0451 20.713 18.0941L20.648 18.1381C20.661 18.0711 20.675 17.9881 20.676 17.9471L20.68 17.8181H19.551L19.456 18.4171L19.305 19.3471L19.037 20.9421C18.997 21.1761 18.931 21.5471 18.891 21.7691L18.624 23.2171L18.475 24.0201C18.4017 24.4104 18.325 24.8001 18.245 25.1891L18.195 25.3981H19.486L19.534 25.2781C19.5488 25.2285 19.5562 25.1769 19.556 25.1251C19.556 25.0991 19.57 24.9711 19.593 24.8231L19.834 23.2971L19.908 22.8101L20.16 23.0641L20.535 23.2251L20.985 23.2861L21.511 23.2511L22.076 23.1041L22.222 23.0371C22.308 22.9981 22.454 22.9161 22.555 22.8501L22.745 22.7221L22.904 22.5641C23.0051 22.4616 23.1003 22.3535 23.189 22.2401C23.2432 22.1786 23.2886 22.11 23.324 22.0361C23.334 22.0181 23.355 21.9861 23.376 21.9531C23.425 21.8821 23.508 21.7121 23.561 21.5871C23.6351 21.4072 23.7028 21.2248 23.764 21.0401L23.862 20.7331L23.911 20.4801C23.943 20.3073 23.9693 20.1336 23.99 19.9591L24.018 19.6791L23.983 19.2211L23.872 18.7501V18.7501Z" fill="#81858E"/>
<path d="M27.799 19.2239L27.761 19.5709H26.647C26.182 19.5709 25.798 19.5689 25.593 19.5659L25.603 19.5389C25.637 19.4459 25.696 19.3059 25.734 19.2289L25.798 19.1009L26.091 18.8099L26.229 18.7439C26.319 18.7009 26.424 18.6609 26.462 18.6509C26.5 18.6409 26.639 18.6229 26.78 18.6149L27.012 18.5999L27.355 18.6429L27.587 18.7489L27.645 18.8109C27.6783 18.8474 27.7081 18.8869 27.734 18.9289L27.758 18.9749L27.799 19.2239ZM29.005 19.3919L29.006 19.1679L29.004 18.9169L28.926 18.5839L28.849 18.4399C28.8045 18.3645 28.7544 18.2927 28.699 18.2249C28.6436 18.1631 28.5819 18.1071 28.515 18.0579C28.4433 18.0096 28.3692 17.9648 28.293 17.9239L28.142 17.8489L27.7 17.7439L27.155 17.6919L26.653 17.7259L26.046 17.8449L25.862 17.9169C25.7406 17.9679 25.6217 18.0249 25.506 18.0879C25.4075 18.1449 25.3127 18.2081 25.222 18.2769C24.9368 18.5004 24.7072 18.7869 24.551 19.1139C24.5015 19.2132 24.4542 19.3136 24.409 19.4149C24.3679 19.518 24.3292 19.622 24.293 19.7269C24.2458 19.8712 24.2044 20.0173 24.169 20.1649C24.131 20.3305 24.098 20.4973 24.07 20.6649L24.03 20.9309L24.034 21.6839L24.071 21.8419C24.092 21.9339 24.133 22.0709 24.162 22.1509C24.192 22.2299 24.245 22.3449 24.282 22.4119C24.321 22.4799 24.4 22.5859 24.463 22.6519C24.522 22.7139 24.627 22.8069 24.701 22.8629C24.775 22.9179 24.901 22.9919 24.989 23.0319L25.155 23.1049L25.355 23.1529C25.469 23.1799 25.64 23.2129 25.737 23.2259C25.833 23.2379 26.031 23.2489 26.188 23.2509L26.462 23.2539L26.736 23.2289C26.885 23.2149 27.129 23.1879 27.278 23.1669C27.437 23.1449 27.695 23.0969 27.853 23.0629L28.235 22.9789L28.262 22.7809C28.27 22.7219 28.303 22.5469 28.335 22.3909L28.395 22.1019L28.382 22.0079L28.27 21.8999L28.101 21.9819C27.9927 22.0275 27.8822 22.0679 27.77 22.1029L27.53 22.1829L27.018 22.2859L26.185 22.2869L26.059 22.2469C25.975 22.2196 25.8928 22.1869 25.813 22.1489L25.712 22.0989L25.547 21.9509L25.418 21.7329L25.329 21.4209L25.327 20.8489L25.395 20.4069L26.019 20.3779L28.828 20.3969L28.892 20.1259C28.915 20.0259 28.951 19.8239 28.971 19.6759L29.005 19.3919Z" fill="#81858E"/>
<path fill-rule="evenodd" clip-rule="evenodd" d="M32.33 18.776C32.486 18.822 32.503 18.822 32.518 18.822C32.532 18.822 32.658 18.817 32.658 18.641C32.659 18.616 32.68 18.483 32.716 18.308C32.779 17.996 32.779 17.981 32.779 17.968C32.779 17.864 32.688 17.831 32.513 17.779C32.4088 17.7476 32.3025 17.7235 32.195 17.707L32.054 17.689L31.877 17.72C31.7723 17.74 31.669 17.767 31.568 17.801C31.4683 17.8402 31.3726 17.8888 31.282 17.946C31.186 18.0101 31.0956 18.0824 31.012 18.162C30.967 18.2075 30.924 18.2549 30.883 18.304C30.907 18.169 30.93 18.047 30.937 18.021L30.999 17.818H29.777V18C29.7613 18.1382 29.7412 18.276 29.717 18.413L29.594 19.178C29.56 19.392 29.5 19.765 29.46 20.005C29.42 20.245 29.36 20.589 29.326 20.769L29.192 21.475C29.1084 21.908 29.023 22.3406 28.936 22.773C28.899 22.953 28.899 22.978 28.899 23.008V23.133H30.18L30.204 22.797C30.2194 22.6193 30.2408 22.4422 30.268 22.266C30.295 22.089 30.351 21.736 30.393 21.482C30.434 21.229 30.51 20.808 30.561 20.545C30.617 20.268 30.673 20.024 30.687 19.982C30.707 19.9307 30.7211 19.8774 30.729 19.823C30.733 19.807 30.76 19.735 30.807 19.634C30.851 19.538 30.937 19.385 30.995 19.298L31.087 19.155L31.37 18.893L31.693 18.738L32.206 18.741L32.33 18.776V18.776Z" fill="#81858E"/>
<path fill-rule="evenodd" clip-rule="evenodd" d="M36.477 18.5651C36.494 18.4551 36.524 18.2751 36.544 18.1641C36.587 17.9231 36.581 17.8851 36.535 17.8391C36.506 17.8111 36.494 17.7991 36.249 17.7711C36.0247 17.7494 35.8 17.7324 35.575 17.7201L35.093 17.6941L34.419 17.7471L33.911 17.8551L33.753 17.9181C33.5764 17.9908 33.4087 18.0834 33.253 18.1941C33.1592 18.2714 33.0691 18.3532 32.983 18.4391L32.781 18.6411L32.677 18.7931C32.5933 18.9235 32.5169 19.0583 32.448 19.1971L32.326 19.4471L32.237 19.7031C32.187 19.8471 32.117 20.0811 32.082 20.2251L32.016 20.4981L31.97 20.9731L31.971 21.5981L32.025 21.9821L32.182 22.3681L32.368 22.6531L32.637 22.9171L32.974 23.0981L33.161 23.1501C33.272 23.1811 33.423 23.2141 33.506 23.2271C33.59 23.2391 33.781 23.2491 33.931 23.2511L34.207 23.2541L34.519 23.2171C34.689 23.1971 34.916 23.1631 35.023 23.1431C35.131 23.1221 35.306 23.0811 35.41 23.0501C35.625 22.9911 35.652 22.9671 35.662 22.9571C35.69 22.9351 35.717 22.9121 35.77 22.6391C35.795 22.5121 35.826 22.3421 35.84 22.2611C35.869 22.0851 35.863 22.0461 35.82 21.9951L35.778 21.9571H35.726C35.6882 21.9582 35.6517 21.9715 35.622 21.9951C35.5437 22.0319 35.4636 22.0649 35.382 22.0941L35.167 22.1751L34.527 22.3031L33.978 22.2841L33.697 22.1861L33.483 21.9981L33.338 21.7331L33.265 21.3741V21.1121L33.264 20.8691L33.356 20.2541L33.407 20.0831C33.435 19.9881 33.468 19.8761 33.478 19.8361C33.488 19.7991 33.531 19.6911 33.571 19.5991C33.613 19.5021 33.689 19.3531 33.738 19.2661L33.814 19.1281L34.022 18.9071L34.239 18.7681L34.396 18.7191C34.479 18.6941 34.627 18.6601 34.719 18.6461L34.876 18.6201L35.394 18.6441L36.008 18.7651L36.137 18.8131C36.289 18.8701 36.289 18.8701 36.316 18.8701C36.43 18.8711 36.44 18.8001 36.477 18.5651Z" fill="#81858E"/>
<path d="M39.711 20.4421L39.698 20.5181C39.6487 20.7956 39.5744 21.068 39.476 21.3321C39.4481 21.4007 39.423 21.4704 39.401 21.5411C39.377 21.5868 39.3517 21.6318 39.325 21.6761L39.244 21.8121L39.109 21.9461C39.0693 21.9879 39.0269 22.0269 38.982 22.0631C38.9366 22.0832 38.8933 22.108 38.853 22.1371L38.778 22.1881L38.416 22.3021L38.062 22.3211L37.951 22.2931C37.8779 22.2733 37.8069 22.2465 37.739 22.2131L37.651 22.1681L37.607 22.1151C37.5704 22.0687 37.5379 22.0192 37.51 21.9671L37.47 21.8921L37.452 21.4721L37.488 21.3491C37.509 21.2781 37.559 21.1491 37.599 21.0691L37.667 20.9271L37.932 20.6641L38.202 20.5311L38.577 20.4421H39.711V20.4421ZM40.804 18.0351L40.467 17.8571L39.962 17.7421L39.315 17.6941L38.909 17.7191C38.6735 17.7337 38.4384 17.7544 38.204 17.7811L37.926 17.8151L37.426 17.8181L37.377 18.0561C37.361 18.1321 37.318 18.3121 37.28 18.4561C37.2 18.7641 37.195 18.7941 37.247 18.8461L37.288 18.8881H37.344C37.356 18.8881 37.394 18.8881 37.609 18.8291C37.8018 18.7817 37.9963 18.7413 38.192 18.7081L38.542 18.6471L39.172 18.6181L39.578 18.6891L39.815 18.8061L39.933 18.9831L39.932 19.1291L39.933 19.2911L39.87 19.6001L38.22 19.6071L37.901 19.6911C37.7613 19.7274 37.6241 19.7725 37.49 19.8261C37.453 19.8451 37.417 19.8601 37.422 19.8621C37.391 19.8621 37.364 19.8621 37.148 19.9971L36.94 20.1301L36.794 20.2761C36.7051 20.3647 36.6236 20.4604 36.55 20.5621C36.4831 20.668 36.4246 20.779 36.375 20.8941L36.286 21.1111L36.21 21.5581L36.212 22.0281L36.282 22.3991L36.362 22.5561C36.403 22.6301 36.474 22.7351 36.525 22.7941L36.607 22.8901L36.929 23.0931L37.127 23.1541C37.223 23.1801 37.368 23.2141 37.451 23.2261L37.606 23.2501L38.302 23.2281L38.739 23.1151L38.873 23.0521C39.1055 22.9424 39.3149 22.7893 39.49 22.6011C39.48 22.7001 39.473 22.7961 39.473 22.8551L39.472 23.1321H40.612L40.643 22.3311L40.706 21.8801C40.741 21.6341 40.798 21.2691 40.831 21.0681C40.865 20.8681 40.925 20.5281 40.963 20.3151L41.099 19.5721L41.166 19.1981L41.17 18.5881L41.02 18.2511L40.804 18.0351V18.0351Z" fill="#81858E"/>
<path fill-rule="evenodd" clip-rule="evenodd" d="M44.801 18.8129L44.896 18.8059L45.002 18.7389L45.004 18.5939C45.004 18.5659 45.027 18.4229 45.06 18.2629L45.138 17.8849L44.975 17.8199C44.9111 17.7972 44.8468 17.7759 44.782 17.7559L44.66 17.7169L44.183 17.7119L43.761 17.8569L43.493 18.0179L43.225 18.2929C43.246 18.1829 43.271 18.0389 43.272 17.9989L43.275 17.8169H42.247L42.122 17.8229V17.9479C42.0675 18.3213 42.0101 18.6943 41.95 19.0669C41.91 19.3129 41.845 19.7129 41.804 19.9549C41.7228 20.4463 41.6338 20.9364 41.537 21.4249L41.2 23.1319H42.54L42.539 22.6999L42.601 22.2969C42.635 22.0759 42.69 21.7249 42.725 21.5179C42.76 21.3109 42.802 21.0459 42.82 20.9329C42.838 20.8199 42.884 20.5769 42.924 20.3919C42.9542 20.2453 42.9899 20.0999 43.031 19.9559C43.035 19.9429 43.076 19.8309 43.075 19.7969C43.079 19.7799 43.111 19.7009 43.166 19.5849L43.254 19.3939L43.508 19.0569L43.638 18.9579C43.711 18.9029 43.832 18.8279 43.903 18.7939L44.016 18.7379L44.576 18.7429L44.801 18.8129Z" fill="#81858E"/>
<path d="M45.829 19.942C45.835 19.917 45.862 19.848 45.894 19.778C45.9403 19.6752 45.989 19.5735 46.04 19.473C46.078 19.401 46.153 19.281 46.204 19.212C46.256 19.142 46.348 19.037 46.405 18.983C46.4677 18.9234 46.5352 18.8692 46.607 18.821L46.692 18.766L47.055 18.64H47.821L48.036 18.699C48.135 18.726 48.24 18.758 48.295 18.776C48.283 18.842 48.259 18.972 48.237 19.101C48.209 19.262 48.154 19.568 48.114 19.782C48.075 19.997 48.014 20.319 47.98 20.5C47.9482 20.6683 47.9119 20.8357 47.871 21.002L47.788 21.31C47.7357 21.4805 47.6589 21.6425 47.56 21.791C47.5183 21.8503 47.4711 21.9056 47.419 21.956C47.3563 22.0112 47.2898 22.062 47.22 22.108L47.1 22.187L46.745 22.3L46.422 22.321L46.297 22.299C46.2237 22.2843 46.1521 22.2625 46.083 22.234L45.98 22.19L45.814 22.055L45.686 21.808L45.624 21.536L45.629 20.919L45.703 20.379L45.763 20.185C45.856 19.892 45.828 19.942 45.829 19.942ZM48.789 15.625L48.762 15.889C48.754 15.972 48.714 16.245 48.675 16.497L48.529 17.397L48.454 17.852C48.3933 17.8347 48.3323 17.8183 48.271 17.803L48.019 17.741L47.364 17.692L46.809 17.745L46.298 17.878L45.816 18.115L45.458 18.383L45.311 18.541C45.2145 18.6465 45.124 18.7573 45.04 18.873L44.917 19.053L44.785 19.328C44.708 19.488 44.619 19.688 44.584 19.783C44.5285 19.939 44.4805 20.0975 44.44 20.258L44.362 20.57L44.289 21.348L44.349 21.983L44.381 22.091C44.4 22.154 44.44 22.267 44.469 22.34L44.52 22.469L44.744 22.774L44.982 22.965L45.128 23.036C45.217 23.081 45.359 23.136 45.45 23.159C45.544 23.185 45.687 23.214 45.772 23.225C45.857 23.236 46.031 23.246 46.168 23.248L46.41 23.251L46.64 23.213C46.754 23.194 46.918 23.162 46.994 23.14C47.0944 23.109 47.192 23.0699 47.286 23.023L47.457 22.93L47.726 22.69L47.727 22.688C47.7211 22.7346 47.7158 22.7813 47.711 22.828L47.682 23.13H48.9L48.899 22.692L48.972 22.071C49.012 21.73 49.071 21.277 49.103 21.064C49.135 20.851 49.185 20.545 49.213 20.386L49.326 19.74C49.359 19.546 49.42 19.206 49.46 18.986L49.736 17.488L49.874 16.759C49.915 16.546 49.976 16.245 50.008 16.092C50.07 15.792 50.07 15.78 50.069 15.75V15.625H48.789Z" fill="#81858E"/>
</svg>
