<svg width="60" height="40" viewBox="0 0 60 40" fill="none" xmlns="http://www.w3.org/2000/svg">
<path d="M35.27 28.6111C40.0191 28.6111 43.869 24.7612 43.869 20.0121C43.869 15.263 40.0191 11.4131 35.27 11.4131C30.5209 11.4131 26.671 15.263 26.671 20.0121C26.671 24.7612 30.5209 28.6111 35.27 28.6111Z" fill="#B5B9C5"/>
<path d="M24.73 28.5869C29.4791 28.5869 33.329 24.737 33.329 19.9879C33.329 15.2388 29.4791 11.3889 24.73 11.3889C19.9809 11.3889 16.131 15.2388 16.131 19.9879C16.131 24.737 19.9809 28.5869 24.73 28.5869Z" fill="#F7F7F7"/>
<path fill-rule="evenodd" clip-rule="evenodd" d="M26.671 19.9931C26.6667 21.3049 26.9631 22.6003 27.5374 23.7798C28.1117 24.9592 28.9487 25.9914 29.984 26.7971C31.0232 25.9966 31.8651 24.9686 32.4451 23.7921C33.0251 22.6156 33.3278 21.3218 33.33 20.0101C33.3343 18.6982 33.0379 17.4028 32.4636 16.2234C31.8893 15.0439 31.0523 14.0117 30.017 13.2061C28.9773 14.006 28.135 15.0339 27.5549 16.2105C26.9748 17.3872 26.6724 18.6812 26.671 19.9931V19.9931Z" fill="#E5E5E5"/>
</svg>
