<?xml version="1.0" encoding="UTF-8"?>
<svg version="1.0" xmlns="http://www.w3.org/2000/svg" width="60" height="30" viewBox="0 0 516 410">
  <g transform="translate(0.000000,410.000000) scale(0.100000,-0.100000)" fill="#000000" stroke="none">
    <path d="M3550 4084 c-129 -7 -282 -15 -340 -18 -58 -4 -760 -40 -1560 -81 -800 -41 -1480 -77 -1510 -79 -30 -3 -74 -5 -97 -6 l-42 0 34 -92 c29 -82 171 -465 527 -1423 55 -148 104 -277 109 -285 4 -9 8 197 8 475 1 270 1 505 1 523 l0 32 424 0 c242 0 446 -4 476 -10 174 -33 284 -149 311 -328 30 -201 -52 -387 -204 -462 -93 -46 -179 -60 -364 -60 l-163 0 0 -175 0 -175 -210 0 c-116 0 -210 -4 -210 -8 0 -8 339 -924 344 -929 1 -2 36 8 77 22 41 13 501 157 1024 320 522 163 951 297 951 298 1 1 -41 57 -94 124 l-97 123 -90 -6 c-102 -7 -271 8 -372 32 -37 9 -109 36 -160 60 -163 78 -232 172 -273 371 -70 347 56 605 374 765 132 66 205 81 396 80 103 0 212 -7 290 -19 l125 -18 3 -166 2 -166 -122 19 c-165 25 -331 21 -404 -11 -111 -49 -164 -139 -172 -294 -6 -120 10 -168 73 -226 84 -77 224 -100 465 -76 85 8 161 15 168 15 8 0 12 -18 12 -59 0 -53 2 -59 19 -54 13 3 40 -15 90 -62 l71 -67 0 596 0 596 250 0 250 0 0 -467 0 -467 80 123 c86 132 144 207 275 358 51 59 83 104 80 113 -3 8 -119 294 -258 635 l-254 620 -39 0 c-21 1 -145 -5 -274 -11z m246 -282 c62 -32 97 -65 129 -124 26 -46 30 -63 30 -133 0 -67 -5 -88 -27 -131 -53 -100 -140 -153 -253 -154 -119 0 -212 59 -261 165 -33 70 -33 170 0 240 27 60 100 127 159 149 58 22 169 16 223 -12z" fill="#E5E5E5" />
    <path d="M1160 2700 l0 -153 98 6 c53 3 115 12 137 20 110 39 115 208 7 254 -22 10 -79 18 -139 21 l-103 5 0 -153z" fill="#E5E5E5" />
    <path d="M4414 2197 c-72 -116 -130 -213 -130 -214 2 -3 378 115 383 121 6 5 -103 285 -116 298 -4 5 -66 -88 -137 -205z" fill="#E5E5E5" />
    <path d="M3645 1800 c3 -5 15 -10 25 -10 10 0 22 5 25 10 4 6 -7 10 -25 10 -18 0 -29 -4 -25 -10z" fill="#E5E5E5" />
    <path d="M3620 1214 c-147 -26 -221 -96 -221 -208 0 -120 68 -177 278 -230 75 -19 103 -31 120 -51 31 -35 29 -58 -8 -89 -68 -58 -199 -10 -199 72 0 23 -2 24 -52 18 -29 -3 -79 -6 -112 -6 l-59 0 7 -41 c12 -77 60 -145 127 -179 83 -43 267 -50 370 -15 170 58 225 272 98 379 -44 38 -95 59 -204 85 -114 27 -143 39 -156 62 -15 30 29 69 78 69 52 0 85 -19 103 -59 14 -32 15 -33 65 -27 27 3 74 6 103 6 47 0 52 2 52 23 -1 33 -34 99 -66 129 -16 15 -49 34 -74 43 -44 16 -201 28 -250 19z" fill="#E5E5E5" />
    <path d="M4348 1210 c-70 -12 -140 -55 -171 -103 -22 -33 -27 -53 -27 -102 0 -123 74 -182 290 -231 53 -12 82 -24 102 -44 36 -37 35 -62 -3 -94 -62 -52 -168 -22 -194 54 -11 32 -15 35 -51 34 -21 -1 -70 -2 -108 -3 l-69 -1 7 -41 c12 -78 60 -145 128 -180 83 -42 267 -49 373 -13 129 44 199 193 146 309 -34 76 -102 117 -257 155 -115 27 -143 39 -155 61 -15 30 29 69 78 69 52 0 85 -19 103 -58 14 -33 15 -33 65 -28 27 3 74 5 103 6 47 0 52 2 52 23 -1 33 -34 99 -66 129 -16 15 -49 34 -74 43 -53 19 -205 28 -272 15z" fill="#E5E5E5" />
    <path d="M2600 841 l0 -371 193 0 c218 0 293 13 361 59 23 16 54 47 67 68 48 73 54 100 54 243 0 124 -2 139 -26 190 -36 77 -71 115 -137 147 -57 28 -59 28 -284 31 l-228 4 0 -371z m397 173 c48 -35 70 -144 52 -254 -6 -40 -16 -62 -39 -84 -27 -28 -37 -31 -105 -34 l-75 -4 0 202 0 202 70 -4 c50 -3 77 -9 97 -24z" fill="#E5E5E5" />
    <path d="M2654 331 c-68 -29 -87 -135 -35 -193 25 -28 34 -32 84 -32 45 -1 60 3 81 23 34 32 33 47 -3 59 -25 9 -30 7 -40 -14 -12 -26 -48 -33 -69 -12 -16 16 -16 100 0 116 18 18 56 14 69 -6 8 -13 20 -17 36 -14 34 6 36 17 10 47 -25 29 -94 43 -133 26z" fill="#E5E5E5" />
    <path d="M2914 326 c-45 -20 -64 -53 -64 -107 0 -65 34 -105 95 -115 97 -14 164 62 136 155 -6 23 -23 48 -36 57 -34 22 -94 27 -131 10z m88 -53 c21 -18 23 -60 6 -98 -12 -27 -54 -35 -76 -13 -16 16 -16 100 0 116 17 17 48 15 70 -5z" fill="#E5E5E5" />
    <path d="M3131 220 l-2 -120 31 0 30 0 1 88 1 87 13 -45 c8 -25 19 -64 25 -88 10 -39 14 -43 38 -40 24 3 28 10 48 88 l22 85 1 -87 1 -88 30 0 30 0 0 120 0 120 -48 0 -49 0 -13 -57 c-19 -91 -25 -93 -45 -14 l-17 71 -48 0 -48 0 -1 -120z" fill="#E5E5E5" />
    <path d="M3450 221 l0 -121 35 0 c35 0 35 0 35 45 0 44 0 45 34 45 47 0 86 33 86 74 0 58 -18 70 -109 74 l-81 4 0 -121z m123 55 c7 -19 -17 -39 -40 -34 -17 3 -24 23 -16 41 7 13 51 7 56 -7z" fill="#E5E5E5" />
    <path d="M3690 220 l0 -120 90 0 90 0 0 30 c0 28 -1 29 -57 32 l-56 3 -1 87-1 88 -32 0 -33 0 0 -120z" fill="#E5E5E5" />
    <path d="M3920 220 l0 -120 35 0 35 0 0 120 0 120 -35 0 -35 0 0 -120z" fill="#E5E5E5" />
    <path d="M4105 328 c-2 -7 -22 -61 -44 -120 l-39 -108 35 0 c26 0 36 5 40 20 4 16 14 20 50 20 36 0 46 -4 50 -20 4 -15 14 -20 39 -20 19 0 34 3 34 8 0 4 -18 56 -40 116 -22 61 -40 111 -40 113 0 10 -81 1 -85 -9z m63 -95 c11 -32 10 -33 -17 -33 -29 0 -29 0 -19 41 12 44 19 42 36 -8z" fill="#E5E5E5" />
    <path d="M4310 220 l0 -120 30 0 c29 0 29 0 32 67 l3 67 44 -67 c39 -61 46 -67 77 -67 l34 0 0 120 0 120 -35 0 -35 0 0 -67 0 -68 -45 68 c-39 58 -50 67 -75 67 l-30 0 0 -120z" fill="#E5E5E5" />
    <path d="M4560 315 c0 -22 4 -25 35 -25 l35 0 0 -95 0 -95 35 0 35 0 0 95 0 95 40 0 c36 0 40 3 40 25 l0 25 -110 0 -110 0 0 -25z" fill="#E5E5E5" />
  </g>
</svg>