<svg width="60" height="40" viewBox="0 0 60 40" fill="none" xmlns="http://www.w3.org/2000/svg">
<path d="M42.747 21.56L41.927 17.631L41.888 17.627L40.462 21.559L42.747 21.56ZM36.198 25.336L36.687 24.163L40.303 15.525C40.538 14.963 40.956 14.677 41.57 14.679C42.273 14.682 42.975 14.682 43.678 14.677C43.812 14.676 43.872 14.704 43.903 14.852C44.614 18.28 45.332 21.706 46.049 25.132C46.063 25.199 46.071 25.268 46.083 25.345H43.54C43.444 24.884 43.341 24.43 43.258 23.971C43.227 23.799 43.159 23.752 42.987 23.753C41.9427 23.7609 40.8983 23.7612 39.854 23.754C39.71 23.753 39.643 23.798 39.597 23.935C39.452 24.366 39.296 24.793 39.133 25.218C39.111 25.276 39.025 25.347 38.968 25.347C38.069 25.355 37.17 25.352 36.271 25.351C36.253 25.352 36.235 25.344 36.198 25.336Z" fill="#F7F7F7"/>
<path fill-rule="evenodd" clip-rule="evenodd" d="M36.836 14.964L36.358 17.196C36.055 17.095 35.767 16.985 35.471 16.903C34.818 16.722 34.152 16.644 33.482 16.774C33.2348 16.8227 33.0001 16.921 32.792 17.063C32.347 17.372 32.333 17.882 32.766 18.209C33.097 18.459 33.471 18.651 33.827 18.867C34.27 19.135 34.738 19.368 35.154 19.673C36.212 20.449 36.564 21.527 36.205 22.79C35.867 23.979 35.032 24.692 33.919 25.121C32.899 25.514 31.836 25.57 30.761 25.483C30.0855 25.4356 29.4187 25.3022 28.777 25.086C28.671 25.049 28.567 25.006 28.448 24.96L28.94 22.654C29.397 22.815 29.835 22.999 30.289 23.123C30.966 23.307 31.663 23.374 32.354 23.219C32.623 23.159 32.898 23.036 33.12 22.874C33.535 22.57 33.566 22.01 33.178 21.672C32.886 21.418 32.538 21.226 32.206 21.021C31.707 20.713 31.17 20.458 30.702 20.109C29.14 18.944 29.419 17.184 30.23 16.13C30.832 15.348 31.658 14.915 32.595 14.683C33.977 14.341 35.341 14.439 36.683 14.902C36.732 14.92 36.777 14.94 36.836 14.964V14.964Z" fill="#F7F7F7"/>
<path fill-rule="evenodd" clip-rule="evenodd" d="M28.825 14.696C28.752 15.046 28.682 15.39 28.608 15.733C27.941 18.852 27.271 21.971 26.611 25.091C26.568 25.294 26.499 25.363 26.285 25.358C25.532 25.343 24.779 25.352 24.026 25.352H23.792L23.996 24.393C24.678 21.206 25.361 18.019 26.041 14.831C26.062 14.732 26.084 14.675 26.204 14.675C27.046 14.68 27.887 14.678 28.729 14.679C28.753 14.681 28.777 14.688 28.825 14.696V14.696Z" fill="#F7F7F7"/>
<path fill-rule="evenodd" clip-rule="evenodd" d="M11.974 14.6791H16.565C17.337 14.6791 17.81 15.0731 17.953 15.8291L19.087 21.8261C19.089 21.8381 19.095 21.8501 19.114 21.9021C19.155 21.8121 19.186 21.7511 19.211 21.6871C20.111 19.4141 21.012 17.1411 21.905 14.8661C21.964 14.7151 22.039 14.6731 22.193 14.6741C23.016 14.6811 23.839 14.6771 24.661 14.6771H24.876C24.835 14.7841 24.804 14.8711 24.768 14.9561C23.34 18.3651 21.911 21.7731 20.485 25.1831C20.435 25.3031 20.379 25.3561 20.239 25.3541C19.378 25.3471 18.517 25.3471 17.657 25.3541C17.522 25.3551 17.476 25.3121 17.443 25.1841C16.719 22.3701 15.987 19.5581 15.265 16.7431C15.156 16.3201 14.925 16.0271 14.53 15.8391C13.738 15.4611 12.902 15.2211 12.053 15.0171C12.011 15.0071 11.97 14.9941 11.915 14.9791L11.942 14.8291C11.952 14.7881 11.961 14.7451 11.974 14.6791V14.6791Z" fill="#F7F7F7"/>
</svg>
