<svg width="30" height="32" fill="none" xmlns="http://www.w3.org/2000/svg">
  <path d="M1.6 12.238a.993.993 0 01-.789-.378.963.963 0 01-.07-1.08C1.993 8.69 5.801 3.815 14.11 3.815c3.601 0 6.76.946 9.382 2.81 2.16 1.53 3.37 3.262 3.946 4.096a.96.96 0 01-.26 1.35 1.007 1.007 0 01-1.379-.26c-1.043-1.5-4.224-6.064-11.689-6.064-7.286 0-10.58 4.2-11.653 6.001a.974.974 0 01-.856.49z" fill="#000" fill-opacity=".2"/>
  <path d="M18.296 31.322a.994.994 0 01-.246-.028c-6.027-1.493-8.278-7.518-8.37-7.769l-.014-.055c-.05-.174-1.258-4.305.598-6.725.851-1.104 2.145-1.67 3.854-1.67 1.59 0 2.736.494 3.524 1.516.65.835.909 1.865 1.16 2.857.528 2.065.909 3.15 3.102 3.261.963.05 1.596-.514 1.955-.994.97-1.308 1.14-3.44.408-5.323-.94-2.43-4.276-7.01-10.158-7.01-2.51 0-4.817.806-6.667 2.323-1.532 1.256-2.745 3.03-3.33 4.852-1.082 3.394.338 8.728.352 8.777a.963.963 0 01-.706 1.184 1 1 0 01-1.216-.688c-.065-.243-1.583-5.933-.331-9.855 1.363-4.25 5.57-8.534 11.9-8.534 2.926 0 5.69.995 7.997 2.873 1.786 1.46 3.245 3.422 4.009 5.383.97 2.504.71 5.314-.662 7.15-.913 1.224-2.215 1.864-3.657 1.794-3.755-.188-4.43-2.81-4.923-4.722-.506-1.962-.83-2.908-2.764-2.908-1.062 0-1.807.293-2.272.898-.633.827-.682 2.12-.612 3.06.046.653.157 1.301.331 1.933.155.39 2.167 5.323 6.984 6.517a.965.965 0 01.714 1.175.997.997 0 01-.96.728z" fill="#000" fill-opacity=".2"/>
  <path d="M10.56 30.877a1.006 1.006 0 01-.725-.306c-2.412-2.532-3.777-5.363-4.29-8.902v-.019c-.288-2.343.134-5.661 2.201-7.942 1.526-1.683 3.671-2.539 6.365-2.539 3.186 0 5.69 1.482 7.251 4.277 1.133 2.031 1.357 4.055 1.363 4.138a.978.978 0 01-.886 1.065.99.99 0 01-1.09-.863 9.998 9.998 0 00-1.159-3.459c-1.21-2.135-3.05-3.22-5.486-3.22-2.103 0-3.748.633-4.88 1.882-1.632 1.802-1.948 4.577-1.724 6.412.45 3.13 1.653 5.62 3.777 7.846a.954.954 0 01-.05 1.37c-.183.166-.42.258-.668.26z" fill="#000" fill-opacity=".2"/>
  <path d="M21.672 28.088c-2.11 0-3.904-.584-5.339-1.745-2.883-2.324-3.206-6.107-3.22-6.267a.991.991 0 111.976-.153c.007.056.295 3.15 2.518 4.933 1.315 1.05 3.073 1.467 5.239 1.224a.986.986 0 011.098.855.969.969 0 01-.873 1.071c-.464.055-.932.082-1.4.082zm1.667-25.795c-.823-.536-3.742-2.129-9.23-2.129-5.76 0-8.685 1.76-9.333 2.207a.752.752 0 00-.12.091.023.023 0 01-.013.006.965.965 0 00-.33.724.978.978 0 00.993.964c.206 0 .407-.063.576-.18.028-.022 2.546-1.872 8.23-1.872 5.682 0 8.214 1.844 8.241 1.857a.99.99 0 00.598.195.978.978 0 00.993-.966.967.967 0 00-.605-.897z" fill="#000" fill-opacity=".2"/>
  <path d="M29.446 21.676h-1.739v-2.045a2.454 2.454 0 10-4.91 0v2.045H21.06a.307.307 0 00-.307.307v7.16a.307.307 0 00.307.306h8.387a.307.307 0 00.306-.307v-7.159a.307.307 0 00-.306-.307zm-2.71 0H23.77v-2.064a1.483 1.483 0 112.965 0v2.064z" fill="#000"/>
</svg>
