<svg width="26" height="35" fill="none" xmlns="http://www.w3.org/2000/svg">
  <path d="M21.393 12.722h-1.136V7.04a6.818 6.818 0 00-13.637 0v5.682H5.484a4.55 4.55 0 00-4.546 4.545v12.5a4.55 4.55 0 004.546 4.546h15.909a4.55 4.55 0 004.546-4.546v-12.5a4.55 4.55 0 00-4.546-4.545zm-3.41 0h-9.09V7.04a4.545 4.545 0 119.09 0v5.682z" fill="#00A650" fill-opacity=".2"/>
  <path d="M11.5 22.17c.358.358.66.819.7 1.324.136 1.71.353 4.454.348 4.723a.436.436 0 00.127.332c.13.13.335.176.473.179.206.004 1.037-.028 1.04-.184.006-.465-.008-.573-.006-.765.003-.287-.449-.417-.516-.586-.067-.168-.037-.244.032-.35.07-.105.286-.197.409-.317.128-.125.144-.247.15-.431.006-.147-.005-.268-.106-.372-.134-.14-.515-.124-.512-.417.003-.294.457-.268.596-.444.14-.176.112-.586.039-.7-.074-.112-.513-.154-.619-.32-.035-.057-.048-.258.007-.343.055-.086.488-.277.543-.363.15-.232.266-.476.5-.622.167-.103.32-.229.48-.389 1.048-1.048 1.08-2.714.074-3.72-1.007-1.007-2.67-.971-3.717.077-1.048 1.047-1.049 2.68-.042 3.688zm2.428-3.138a.692.692 0 11-.979.98.692.692 0 01.98-.98z" fill="#00A650"/>
</svg>
