<svg width="29" height="35" fill="none" xmlns="http://www.w3.org/2000/svg">
  <path d="M24.76 13.827h-9.942a3.409 3.409 0 01-3.41-3.41V.476a.284.284 0 00-.284-.285H4.59A4.545 4.545 0 00.045 4.736v22.727A4.546 4.546 0 004.59 32.01H20.5a4.546 4.546 0 004.545-4.546V14.111a.284.284 0 00-.284-.284zM18.228 25.19H6.863a1.136 1.136 0 110-2.272h11.364a1.136 1.136 0 110 2.272zm0-5.681H6.863a1.136 1.136 0 110-2.273h11.364a1.136 1.136 0 110 2.273z" fill="#3483FA" fill-opacity=".2"/>
  <path d="M24.137 11.312L13.924 1.098a.142.142 0 00-.243.1v9.22a1.136 1.136 0 001.137 1.136h9.22a.142.142 0 00.1-.242z" fill="#3483FA" fill-opacity=".2"/>
  <path d="M22.002 21.313a6.508 6.508 0 00-6.5 6.5c0 3.584 2.916 6.5 6.5 6.5 3.585 0 6.5-2.916 6.5-6.5s-2.915-6.5-6.5-6.5zm3.383 4.321l-4.2 5a.5.5 0 01-.375.179h-.008a.5.5 0 01-.372-.166l-1.8-2a.499.499 0 01.396-.842.5.5 0 01.347.173l1.416 1.573 3.83-4.56a.5.5 0 01.766.643z" fill="#3483FA"/>
</svg>
