<svg width="22" height="25" viewBox="0 0 22 25" fill="none" xmlns="http://www.w3.org/2000/svg">
<path d="M11.0292 22.7586C9.43413 22.7586 7.96552 22.496 6.62334 21.9708C5.28117 21.4456 4.11406 20.7162 3.12202 19.7825C2.12997 18.8294 1.36163 17.7206 0.816976 16.4562C0.272325 15.1724 0 13.7719 0 12.2546C0 10.7374 0.272325 9.3466 0.816976 8.08223C1.36163 6.79841 2.12997 5.68965 3.12202 4.75597C4.11406 3.80283 5.28117 3.06366 6.62334 2.53846C7.96552 2.01326 9.4244 1.75066 11 1.75066C12.595 1.75066 14.0539 2.01326 15.3767 2.53846C16.7188 3.06366 17.8859 3.80283 18.878 4.75597C19.87 5.68965 20.6384 6.79841 21.183 8.08223C21.7277 9.3466 22 10.7374 22 12.2546C22 13.7719 21.7277 15.1724 21.183 16.4562C20.6384 17.7401 19.87 18.8488 18.878 19.7825C17.8859 20.7162 16.7188 21.4456 15.3767 21.9708C14.0539 22.496 12.6048 22.7586 11.0292 22.7586ZM11 19.4324C12.0309 19.4324 12.9841 19.2573 13.8594 18.9072C14.7347 18.557 15.4934 18.061 16.1353 17.4191C16.7772 16.7577 17.2732 15.9991 17.6233 15.1432C17.9929 14.2679 18.1777 13.305 18.1777 12.2546C18.1777 11.2042 17.9929 10.2511 17.6233 9.39523C17.2732 8.51989 16.7772 7.76127 16.1353 7.11936C15.4934 6.458 14.7347 5.95226 13.8594 5.60212C12.9841 5.25199 12.0309 5.07692 11 5.07692C9.96905 5.07692 9.01592 5.25199 8.14058 5.60212C7.2847 5.95226 6.52608 6.458 5.86472 7.11936C5.22281 7.76127 4.71706 8.51989 4.34748 9.39523C3.99735 10.2511 3.82228 11.2042 3.82228 12.2546C3.82228 13.2856 3.99735 14.2387 4.34748 15.1141C4.71706 15.9894 5.22281 16.7577 5.86472 17.4191C6.50663 18.061 7.26525 18.557 8.14058 18.9072C9.01592 19.2573 9.96905 19.4324 11 19.4324ZM0.904509 24.5093L18.4111 0H21.1247L3.61804 24.5093H0.904509Z" fill="#00E4A0"/>
</svg>
