<svg width="80" height="80" viewBox="0 0 80 80" fill="none" xmlns="http://www.w3.org/2000/svg">
<circle cx="40" cy="40" r="40" fill="#FF9E44" fill-opacity="0.1"/>
<path d="M40.5 36.3013V41.0869M40.5 45.8725H40.512M38.4542 30.1518L28.3207 47.0689C28.1117 47.4307 28.0012 47.8409 28 48.2588C27.9988 48.6766 28.1071 49.0874 28.314 49.4504C28.5209 49.8134 28.8192 50.1158 29.1793 50.3277C29.5394 50.5396 29.9487 50.6535 30.3665 50.6581H50.6335C51.0513 50.6535 51.4606 50.5396 51.8207 50.3277C52.1808 50.1158 52.4791 49.8134 52.686 49.4504C52.8929 49.0874 53.0012 48.6766 53 48.2588C52.9988 47.8409 52.8883 47.4307 52.6793 47.0689L42.5458 30.1518C42.3326 29.8002 42.0323 29.5095 41.6739 29.3077C41.3155 29.106 40.9112 29 40.5 29C40.0888 29 39.6845 29.106 39.3261 29.3077C38.9677 29.5095 38.6674 29.8002 38.4542 30.1518Z" stroke="#FF9E44" stroke-width="3" stroke-linecap="round" stroke-linejoin="round"/>
</svg>
